<svg version="1.1" id="Layer_1" xmlns="http://www.w3.org/2000/svg" xmlns:xlink="http://www.w3.org/1999/xlink" x="0px" y="0px"
	 width="100%" viewBox="0 0 190 149" enable-background="new 0 0 190 149" xml:space="preserve">
<path fill="#1C264A" opacity="1.000000" stroke="none" 
	d="
M131.000000,150.000000 
	C87.365189,150.000000 44.230373,150.000000 1.047779,150.000000 
	C1.047779,100.401878 1.047779,50.803692 1.047779,1.102753 
	C64.217949,1.102753 127.436127,1.102753 190.827148,1.102753 
	C190.827148,50.666172 190.827148,100.333038 190.827148,150.000000 
	C171.137344,150.000000 151.318680,150.000000 131.000000,150.000000 
M83.628128,121.404083 
	C90.732651,118.141251 94.944115,112.393646 97.451912,104.858299 
	C104.489052,104.858299 111.468880,104.827728 118.448303,104.867157 
	C125.027740,104.904327 125.183212,105.520981 123.861351,112.054504 
	C123.419746,114.237236 124.345505,117.785744 125.945198,119.003365 
	C127.749084,120.376427 131.462143,120.780624 133.516251,119.825058 
	C135.337692,118.977730 137.440002,115.281082 136.942520,113.556389 
	C135.510742,108.592690 133.658966,103.258484 130.350937,99.494858 
	C128.018677,96.841415 123.117142,95.683052 119.228363,95.327713 
	C112.210991,94.686478 105.093002,95.146339 98.084229,95.146339 
	C98.084229,90.106102 98.084229,85.992119 98.084229,80.754463 
	C101.840019,81.512421 105.229591,81.846207 108.365166,82.920998 
	C112.000542,84.167114 115.469597,83.993294 117.087906,80.648369 
	C118.172585,78.406418 118.123489,74.710106 116.972641,72.503899 
	C115.228989,69.161270 111.695778,69.396187 108.145302,70.554459 
	C105.020882,71.573746 101.634918,71.791328 98.293228,72.375412 
	C98.293228,66.945404 98.293228,62.577141 98.293228,57.723274 
	C108.781509,59.222813 118.930428,55.979866 128.891464,59.838669 
	C130.694977,60.537334 134.889679,58.724102 135.870575,56.922066 
	C136.995575,54.855267 136.697403,50.814125 135.284805,48.929131 
	C134.060974,47.296013 130.433380,47.115528 127.834076,46.987694 
	C126.174095,46.906052 124.435181,48.625648 122.761711,48.573490 
	C120.498085,48.502937 116.854347,50.400547 116.423798,46.102173 
	C116.121521,43.084351 116.616180,39.986698 116.761597,36.778179 
	C118.377274,36.861782 119.196953,36.891003 120.014610,36.948765 
	C123.844696,37.219311 127.078232,35.570187 127.498482,31.924688 
	C127.782646,29.459789 126.424881,26.002609 124.589233,24.284470 
	C121.833443,21.705097 118.639999,23.106264 115.630989,25.365511 
	C109.241043,30.163254 105.833313,36.060692 106.949913,44.224850 
	C107.123055,45.490818 106.799934,46.824661 106.689835,48.356216 
	C103.749435,48.356216 101.040764,48.356216 97.739082,48.356216 
	C97.739082,45.040260 97.874199,42.071583 97.714073,39.118919 
	C97.208244,29.791492 90.453232,21.868406 82.233292,20.809231 
	C72.605247,19.568615 64.216560,25.003460 60.895184,34.275967 
	C60.313744,35.899204 58.668365,37.387493 57.151592,38.388313 
	C49.211262,43.627602 45.267052,52.719429 46.619480,62.074638 
	C46.936024,64.264267 46.346413,66.988243 45.225189,68.914192 
	C39.674133,78.449326 40.899704,89.970978 48.499020,97.925743 
	C49.650581,99.131165 50.687408,100.814415 50.974758,102.420250 
	C53.839378,118.428955 67.203102,126.584045 83.628128,121.404083 
z"/>
<path fill="#4F9FFA" opacity="1.000000" stroke="none" 
	d="
M83.274818,121.586197 
	C67.203102,126.584045 53.839378,118.428955 50.974758,102.420250 
	C50.687408,100.814415 49.650581,99.131165 48.499020,97.925743 
	C40.899704,89.970978 39.674133,78.449326 45.225189,68.914192 
	C46.346413,66.988243 46.936024,64.264267 46.619480,62.074638 
	C45.267052,52.719429 49.211262,43.627602 57.151592,38.388313 
	C58.668365,37.387493 60.313744,35.899204 60.895184,34.275967 
	C64.216560,25.003460 72.605247,19.568615 82.233292,20.809231 
	C90.453232,21.868406 97.208244,29.791492 97.714073,39.118919 
	C97.874199,42.071583 97.739082,45.040260 97.739082,48.356216 
	C101.040764,48.356216 103.749435,48.356216 106.689835,48.356216 
	C106.799934,46.824661 107.123055,45.490818 106.949913,44.224850 
	C105.833313,36.060692 109.241043,30.163254 115.630989,25.365511 
	C118.639999,23.106264 121.833443,21.705097 124.589233,24.284470 
	C126.424881,26.002609 127.782646,29.459789 127.498482,31.924688 
	C127.078232,35.570187 123.844696,37.219311 120.014610,36.948765 
	C119.196953,36.891003 118.377274,36.861782 116.761597,36.778179 
	C116.616180,39.986698 116.121521,43.084351 116.423798,46.102173 
	C116.854347,50.400547 120.498085,48.502937 122.761711,48.573490 
	C124.435181,48.625648 126.174095,46.906052 127.834076,46.987694 
	C130.433380,47.115528 134.060974,47.296013 135.284805,48.929131 
	C136.697403,50.814125 136.995575,54.855267 135.870575,56.922066 
	C134.889679,58.724102 130.694977,60.537334 128.891464,59.838669 
	C118.930428,55.979866 108.781509,59.222813 98.293228,57.723274 
	C98.293228,62.577141 98.293228,66.945404 98.293228,72.375412 
	C101.634918,71.791328 105.020882,71.573746 108.145302,70.554459 
	C111.695778,69.396187 115.228989,69.161270 116.972641,72.503899 
	C118.123489,74.710106 118.172585,78.406418 117.087906,80.648369 
	C115.469597,83.993294 112.000542,84.167114 108.365166,82.920998 
	C105.229591,81.846207 101.840019,81.512421 98.084229,80.754463 
	C98.084229,85.992119 98.084229,90.106102 98.084229,95.146339 
	C105.093002,95.146339 112.210991,94.686478 119.228363,95.327713 
	C123.117142,95.683052 128.018677,96.841415 130.350937,99.494858 
	C133.658966,103.258484 135.510742,108.592690 136.942520,113.556389 
	C137.440002,115.281082 135.337692,118.977730 133.516251,119.825058 
	C131.462143,120.780624 127.749084,120.376427 125.945198,119.003365 
	C124.345505,117.785744 123.419746,114.237236 123.861351,112.054504 
	C125.183212,105.520981 125.027740,104.904327 118.448303,104.867157 
	C111.468880,104.827728 104.489052,104.858299 97.451912,104.858299 
	C94.944115,112.393646 90.732651,118.141251 83.274818,121.586197 
M51.048546,81.425858 
	C52.112461,89.795334 55.740932,93.781166 63.781181,94.979652 
	C66.945854,95.451370 69.485191,96.572441 69.453827,100.031113 
	C69.421669,103.577072 66.802521,104.679718 63.597412,104.723404 
	C63.022610,104.731239 62.451748,105.027977 61.851398,105.199211 
	C64.135513,111.072960 69.151703,114.311020 75.094238,113.947296 
	C80.864883,113.594086 87.024773,109.529137 87.488419,104.100815 
	C88.225540,95.470444 87.685211,86.730965 87.685211,77.713730 
	C85.529778,78.726608 83.770454,80.180313 81.960312,80.246628 
	C79.653091,80.331139 76.406601,80.045013 75.174896,78.572266 
	C73.084587,76.072876 75.082825,73.649368 77.645302,72.141708 
	C78.647957,71.551788 79.760078,71.138451 80.729347,70.502869 
	C85.022186,67.687927 87.697105,63.727009 87.945724,58.590160 
	C88.251427,52.274014 88.299431,45.932270 88.132782,39.610184 
	C87.974556,33.607719 83.023605,29.348761 77.671074,30.204016 
	C72.156120,31.085224 68.845284,36.399899 70.213577,42.238789 
	C70.439941,43.204765 71.305374,44.249722 71.089661,45.045040 
	C70.569832,46.961533 70.041191,49.446476 68.639137,50.368191 
	C67.560661,51.077190 65.077103,49.932392 63.358997,49.255157 
	C62.597095,48.954834 62.182262,47.774036 60.934235,46.070858 
	C59.125717,49.307629 57.220612,51.827820 56.319530,54.666698 
	C55.787003,56.344425 56.158783,59.207535 57.306427,60.359867 
	C61.567390,64.638222 61.330719,65.746056 57.043934,70.226234 
	C54.361046,73.030151 53.007950,77.106453 51.048546,81.425858 
z"/>
<path fill="#1D284C" opacity="1.000000" stroke="none" 
	d="
M51.053356,81.018845 
	C53.007950,77.106453 54.361046,73.030151 57.043934,70.226234 
	C61.330719,65.746056 61.567390,64.638222 57.306427,60.359867 
	C56.158783,59.207535 55.787003,56.344425 56.319530,54.666698 
	C57.220612,51.827820 59.125717,49.307629 60.934235,46.070858 
	C62.182262,47.774036 62.597095,48.954834 63.358997,49.255157 
	C65.077103,49.932392 67.560661,51.077190 68.639137,50.368191 
	C70.041191,49.446476 70.569832,46.961533 71.089661,45.045040 
	C71.305374,44.249722 70.439941,43.204765 70.213577,42.238789 
	C68.845284,36.399899 72.156120,31.085224 77.671074,30.204016 
	C83.023605,29.348761 87.974556,33.607719 88.132782,39.610184 
	C88.299431,45.932270 88.251427,52.274014 87.945724,58.590160 
	C87.697105,63.727009 85.022186,67.687927 80.729347,70.502869 
	C79.760078,71.138451 78.647957,71.551788 77.645302,72.141708 
	C75.082825,73.649368 73.084587,76.072876 75.174896,78.572266 
	C76.406601,80.045013 79.653091,80.331139 81.960312,80.246628 
	C83.770454,80.180313 85.529778,78.726608 87.685211,77.713730 
	C87.685211,86.730965 88.225540,95.470444 87.488419,104.100815 
	C87.024773,109.529137 80.864883,113.594086 75.094238,113.947296 
	C69.151703,114.311020 64.135513,111.072960 61.851398,105.199211 
	C62.451748,105.027977 63.022610,104.731239 63.597412,104.723404 
	C66.802521,104.679718 69.421669,103.577072 69.453827,100.031113 
	C69.485191,96.572441 66.945854,95.451370 63.781181,94.979652 
	C55.740932,93.781166 52.112461,89.795334 51.053356,81.018845 
z"/>
</svg>